<?xml version="1.0" standalone="no"?>
<!DOCTYPE svg PUBLIC "-//W3C//DTD SVG 20010904//EN"
 "http://www.w3.org/TR/2001/REC-SVG-20010904/DTD/svg10.dtd">
<svg version="1.0" xmlns="http://www.w3.org/2000/svg"
 width="122.000000pt" height="122.000000pt" viewBox="0 0 122.000000 122.000000"
 preserveAspectRatio="xMidYMid meet">
<metadata>
Created by potrace 1.11, written by Peter Selinger 2001-2013
</metadata>
<g transform="translate(0.000000,122.000000) scale(0.100000,-0.100000)"
fill="#000000" stroke="none">
<path d="M600 1129 c-13 -24 -5 -54 11 -43 8 4 9 3 5 -5 -6 -9 -11 -9 -21 -1
-10 9 -16 6 -25 -10 -6 -12 -9 -24 -7 -27 3 -2 -4 -14 -15 -25 -12 -12 -17
-26 -13 -36 3 -9 3 -13 -1 -9 -4 3 -23 -24 -42 -62 l-35 -68 -210 120 c-116
65 -218 122 -226 125 -8 3 40 -60 107 -140 67 -80 122 -149 122 -153 0 -3 -8
-4 -17 -1 -10 2 -45 7 -78 11 -33 3 -76 9 -95 12 -33 5 -30 1 45 -54 44 -33
108 -79 143 -103 34 -24 62 -46 62 -49 0 -11 -16 -27 -70 -71 -77 -63 -98 -81
-139 -117 -20 -18 -39 -33 -43 -33 -5 0 -8 -4 -8 -9 0 -5 38 8 85 30 47 21 90
39 95 39 5 0 -15 -59 -45 -131 -41 -99 -50 -128 -35 -117 10 7 80 64 154 125
74 62 137 109 139 105 3 -4 37 -87 77 -185 40 -98 74 -176 76 -174 2 2 6 25 9
53 3 27 8 58 9 70 2 11 7 50 11 87 4 37 11 65 15 62 4 -2 44 -63 90 -135 45
-71 84 -130 87 -130 5 0 -1 41 -27 195 -10 61 -21 128 -24 150 -4 23 -8 51
-11 63 -5 27 -14 24 120 28 61 1 112 3 115 4 3 1 32 1 65 1 l60 -1 -34 15
c-18 8 -38 12 -44 8 -6 -3 -7 -1 -3 5 4 7 2 12 -4 12 -6 0 -36 11 -66 25 -30
14 -60 25 -67 25 -7 0 -1 9 13 19 13 11 28 17 32 15 4 -3 8 -1 8 4 0 5 17 16
38 25 62 27 113 59 119 73 3 8 9 14 15 14 5 0 6 -6 3 -12 -4 -7 0 -5 8 5 9 10
18 18 21 18 19 -2 26 0 26 8 0 6 -12 6 -31 1 -18 -5 -36 -7 -40 -4 -5 3 -9 1
-9 -4 0 -6 -10 -8 -22 -4 -16 4 -19 2 -13 -9 8 -12 6 -12 -9 0 -15 13 -17 12
-13 -10 4 -19 1 -25 -15 -25 -16 0 -17 2 -4 11 10 8 12 16 5 26 -5 8 -9 10 -9
4 0 -5 -26 -11 -58 -13 -31 -1 -58 -7 -60 -11 -2 -5 -12 -7 -23 -4 -10 3 -26
0 -34 -7 -11 -9 -15 -9 -15 -1 0 7 -4 10 -8 7 -5 -3 -31 -8 -58 -12 -48 -6
-49 -6 -31 13 9 11 17 22 17 25 0 3 27 47 60 97 53 79 59 94 50 113 -10 21
-10 21 3 6 10 -13 16 -15 25 -6 17 17 15 24 -5 24 -10 1 -25 4 -33 8 -9 4 -24
-2 -37 -13 -11 -11 -24 -17 -27 -14 -3 4 -6 1 -6 -5 0 -7 -7 -12 -15 -12 -8 0
-15 -7 -15 -15 0 -9 -6 -12 -15 -9 -8 4 -15 2 -15 -4 0 -5 -9 -12 -21 -15 -13
-4 -18 -10 -14 -17 6 -9 2 -9 -14 -1 -14 8 -21 21 -21 41 0 16 -5 32 -10 35
-6 4 -8 11 -5 16 3 5 1 35 -6 66 -6 32 -11 66 -11 76 1 23 -5 22 -18 -4z m242
-181 c-14 -14 -44 -20 -36 -7 3 5 10 7 15 4 5 -4 12 1 15 10 4 9 9 13 12 10 3
-3 0 -11 -6 -17z m-12 -32 c0 -2 -8 -10 -17 -17 -16 -13 -17 -12 -4 4 13 16
21 21 21 13z m-60 -40 c0 -2 -8 -10 -17 -17 -16 -13 -17 -12 -4 4 13 16 21 21
21 13z"/>
<path d="M940 1072 c0 -7 -3 -11 -7 -10 -14 5 -53 -28 -45 -37 4 -4 -1 -5 -10
-2 -22 8 -33 -9 -12 -17 9 -4 28 1 42 10 19 13 22 18 11 25 -11 7 -11 9 3 9
18 0 34 18 24 27 -3 4 -6 1 -6 -5z"/>
</g>
</svg>
